# xmcd
#
# Track frame offsets:
#	150
#	11850
#	24930
#	36705
#	56620
#	68225
#	82897
#	92742
#	110717
#	123995
#	138275
#	151562
#	173842
#	186467
#	202822
#	229337
#
# Disc length: 3329 seconds
#
# Revision: 0
# Processed by: cddbd v1.4PL0 Copyright (c) Steve Scherf et al.
# Submitted via: dBpowerAMP V4.0
#
DISCID=d40cff10
DTITLE=The King - Lumoa mut...
DYEAR=1900
DGENRE=
TTITLE0=Tervetuloa haaremiini
TTITLE1=Lumoa mut
TTITLE2=K‰si joka kehtoa keinuttaa
TTITLE3=Sadepisaroissa myrskytuulen
TTITLE4=Pyh‰‰ viini‰
TTITLE5=Sun viel‰kin oon
TTITLE6=Matkalla kotiin
TTITLE7=Yksin sateessa
TTITLE8=Sammunut liekki
TTITLE9=Satakieli
TTITLE10=Langennut enkeli
TTITLE11=Ylj‰n laulu morsiamelle
TTITLE12=Tanssin, laulan ja juon
TTITLE13=Saimaan joutsen valssi
TTITLE14=Kerran kohdataan
TTITLE15=Tahdon omistaa
EXTD=
EXTT0=
EXTT1=
EXTT2=
EXTT3=
EXTT4=
EXTT5=
EXTT6=
EXTT7=
EXTT8=
EXTT9=
EXTT10=
EXTT11=
EXTT12=
EXTT13=
EXTT14=
EXTT15=
PLAYORDER=
